# xmcd CD database file# Copyright (C) 1997 Ti Kan# # Track frame offsets:#     150#     21717#     39930#     62087#     83762#     103180#     127035#     143862#     156737#     176105#     200512#     223402#     245730#     257457# # Disc length: 3768 seconds# # Revision: 4# Processed by: cddbd v1.4PL0 Copyright (c) Steve Scherf et al.# Submitted via: DiscPlay 4.0.3# DISCID=dd0eb60eDTITLE=Depeche Mode / Music For The MassesTTITLE0=Never Let Me Down AgainTTITLE1=The Things You SaidTTITLE2=StrangeloveTTITLE3=SacredTTITLE4=Little 15TTITLE5=Behind The WheelTTITLE6=I Want You NowTTITLE7=To Have And To HoldTTITLE8=NothingTTITLE9=PimpfTTITLE10=Agent OrangeTTITLE11=Never Let Me Down Again - Aggro MixTTITLE12=To Have And To Hold - Spanish TasterTTITLE13=Pleasure, Little TreasureEXTD=\nURL: http://www.ludat.lth.se/~dat94hfe/synthpop/lyrics/dm-music.txt "EXTD=http://www.ludat.lth.se...pop/lyrics/dm-music.txt"\nURL: http://cc.usu.EXTD=edu/~slp0z/dm101/mfm.htm "DM- 101- Music For The Masses"EXTT0=EXTT1=EXTT2=EXTT3=EXTT4=EXTT5=EXTT6=EXTT7=EXTT8=EXTT9=EXTT10=EXTT11=EXTT12=EXTT13=PLAYORDER=.# xmcd CD database file# Copyright (C) 1997 Ti Kan# # Track frame offsets:#     150#     21717#     39930#     62087#     83762#     103180#     127035#     143862#     156737#     176105#     200512#     223402#     245730#     257457# # Disc length: 3768 seconds# # Revision: 4# Processed by: cddbd v1.4PL0 Copyright (c) Steve Scherf et al.# Submitted via: DiscPlay 4.0.3# DISCID=dd0eb60eDTITLE=Depeche Mode / Music For The MassesTTITLE0=Never Let Me Down AgainTTITLE1=The Things You SaidTTITLE2=StrangeloveTTITLE3=SacredTTITLE4=Little 15TTITLE5=Behind The WheelTTITLE6=I Want You NowTTITLE7=To Have And To HoldTTITLE8=NothingTTITLE9=PimpfTTITLE10=Agent OrangeTTITLE11=Never Let Me Down Again - Aggro MixTTITLE12=To Have And To Hold - Spanish TasterTTITLE13=Pleasure, Little TreasureEXTD=\nURL: http://www.ludat.lth.se/~dat94hfe/synthpop/lyrics/dm-music.txt "EXTD=http://www.ludat.lth.se...pop/lyrics/dm-music.txt"\nURL: http://cc.usu.EXTD=edu/~slp0z/dm101/mfm.htm "DM- 101- Music For The Masses"EXTT0=EXTT1=EXTT2=EXTT3=EXTT4=EXTT5=EXTT6=EXTT7=EXTT8=EXTT9=EXTT10=EXTT11=EXTT12=EXTT13=PLAYORDER=.# xmcd CD database file# Copyright (C) 1995-1998 Ti Kan## Track frame offsets:#	150#	19721#	44658#	61344#	88422#	110179#	119368#	147167#	162437#	181984#	205810#	215213#	238452## Disc length: 3408 seconds## Revision: 1# Processed by: cddbd v1.4PL0 Copyright (c) Steve Scherf et al.# Submitted via: CDex 1.40Beta0#DISCID=d00d4e0dDTITLE=Depeche Mode / ExciterTTITLE0=Dream OnTTITLE1=ShineTTITLE2=The Sweetest ConditionTTITLE3=When The Body SpeaksTTITLE4=The Dead Of NightTTITLE5=LovetimeTTITLE6=FreeloveTTITLE7=ComatoseTTITLE8=I Feel LovedTTITLE9=BreatheTTITLE10=Easy TigerTTITLE11=I Am YouTTITLE12=Goodnight LoversEXTD= ID3G:  13EXTT0=EXTT1=EXTT2=EXTT3=EXTT4=EXTT5=EXTT6=EXTT7=EXTT8=EXTT9=EXTT10=EXTT11=EXTT12=PLAYORDER=.# xmcd CD database file# Copyright (C) 1995-1998 Ti Kan## Track frame offsets:#	150#	19721#	44658#	61344#	88422#	110179#	119368#	147167#	162437#	181984#	205810#	215213#	238452## Disc length: 3408 seconds## Revision: 1# Processed by: cddbd v1.4PL0 Copyright (c) Steve Scherf et al.# Submitted via: CDex 1.40Beta0#DISCID=d00d4e0dDTITLE=Depeche Mode / ExciterTTITLE0=Dream OnTTITLE1=ShineTTITLE2=The Sweetest ConditionTTITLE3=When The Body SpeaksTTITLE4=The Dead Of NightTTITLE5=LovetimeTTITLE6=FreeloveTTITLE7=ComatoseTTITLE8=I Feel LovedTTITLE9=BreatheTTITLE10=Easy TigerTTITLE11=I Am YouTTITLE12=Goodnight LoversEXTD= ID3G:  13EXTT0=EXTT1=EXTT2=EXTT3=EXTT4=EXTT5=EXTT6=EXTT7=EXTT8=EXTT9=EXTT10=EXTT11=EXTT12=PLAYORDER=.